<svg width="25" height="32" viewBox="0 0 25 32" fill="none" xmlns="http://www.w3.org/2000/svg">
<path d="M12.8356 15.2C11.6979 15.2 10.6068 14.7786 9.80233 14.0284C8.99786 13.2783 8.54591 12.2609 8.54591 11.2C8.54591 10.1391 8.99786 9.12172 9.80233 8.37157C10.6068 7.62143 11.6979 7.2 12.8356 7.2C13.9733 7.2 15.0644 7.62143 15.8689 8.37157C16.6733 9.12172 17.1253 10.1391 17.1253 11.2C17.1253 11.7253 17.0143 12.2454 16.7988 12.7307C16.5832 13.216 16.2672 13.657 15.8689 14.0284C15.4705 14.3999 14.9976 14.6945 14.4772 14.8955C13.9568 15.0965 13.3989 15.2 12.8356 15.2ZM12.8356 0C9.65005 0 6.59497 1.18 4.34244 3.2804C2.08992 5.38081 0.824463 8.22958 0.824463 11.2C0.824463 19.6 12.8356 32 12.8356 32C12.8356 32 24.8467 19.6 24.8467 11.2C24.8467 8.22958 23.5813 5.38081 21.3288 3.2804C19.0762 1.18 16.0212 0 12.8356 0Z" fill="white"/>
</svg>
