<svg width="88" height="74" viewBox="0 0 88 74" fill="none" xmlns="http://www.w3.org/2000/svg">
<path d="M43.8236 0C59.2494 0 68.0079 9.84777 69.2788 21.749H69.6669C79.5961 21.749 87.6471 29.4933 87.6471 39.0468C87.6471 48.6003 79.5961 56.3446 69.6669 56.3446H17.9802C8.05101 56.3446 0 48.6003 0 39.0468C0 29.4933 8.05101 21.749 17.9802 21.749H18.3683C19.6455 9.76639 28.3914 0 43.8236 0Z" fill="white"/>
<path d="M32.6435 66.2966L31.6038 66.0838L32.2313 65.9162C32.285 65.9018 32.3353 65.877 32.3794 65.8431C32.4235 65.8093 32.4605 65.7671 32.4883 65.719C32.5161 65.6708 32.5341 65.6177 32.5413 65.5626C32.5486 65.5075 32.5449 65.4515 32.5305 65.3978C32.5161 65.3441 32.4913 65.2938 32.4575 65.2497C32.4236 65.2056 32.3814 65.1686 32.3333 65.1409C32.2852 65.1131 32.232 65.0951 32.1769 65.0878C32.1218 65.0806 32.0658 65.0842 32.0121 65.0986L31.374 65.2692C31.3897 65.1714 31.4041 65.0728 31.4041 64.9704C31.4041 64.868 31.3897 64.769 31.374 64.6713L32.013 64.8422L32.123 64.8566C32.2257 64.8565 32.3248 64.8192 32.4019 64.7515C32.4791 64.6837 32.529 64.5903 32.5423 64.4885C32.5557 64.3867 32.5316 64.2836 32.4745 64.1982C32.4175 64.1129 32.3314 64.0512 32.2322 64.0247L31.6046 63.8567L32.6435 63.6443C32.7127 63.6301 32.7776 63.5996 32.8328 63.5555C32.8879 63.5113 32.9318 63.4547 32.9608 63.3902C32.9897 63.3258 33.003 63.2554 32.9994 63.1848C32.9959 63.1142 32.9756 63.0455 32.9402 62.9843C32.9049 62.9231 32.8555 62.8712 32.7962 62.8328C32.7369 62.7944 32.6693 62.7707 32.599 62.7636C32.5287 62.7565 32.4577 62.7661 32.3918 62.7918C32.326 62.8175 32.2672 62.8585 32.2203 62.9113L31.5166 63.7043L31.685 63.0785C31.6995 63.0248 31.7032 62.9688 31.696 62.9137C31.6888 62.8586 31.6709 62.8054 31.6431 62.7572C31.5871 62.6599 31.4947 62.5889 31.3863 62.5597C31.2779 62.5305 31.1623 62.5456 31.065 62.6016C30.9677 62.6577 30.8967 62.75 30.8675 62.8584L30.6953 63.5004C30.5405 63.3725 30.3664 63.2701 30.1795 63.197L30.6458 62.7307C30.6851 62.6914 30.7162 62.6447 30.7375 62.5934C30.7588 62.5421 30.7697 62.487 30.7697 62.4315C30.7697 62.3759 30.7588 62.3209 30.7375 62.2696C30.7162 62.2182 30.6851 62.1716 30.6458 62.1323C30.6065 62.093 30.5598 62.0619 30.5085 62.0406C30.4572 62.0193 30.4022 62.0084 30.3466 62.0084C30.291 62.0084 30.236 62.0193 30.1847 62.0406C30.1334 62.0619 30.0867 62.093 30.0474 62.1323L29.5879 62.5919L29.9234 61.5852C29.9455 61.5182 29.9514 61.447 29.9406 61.3774C29.9298 61.3077 29.9027 61.2416 29.8614 61.1845C29.8201 61.1274 29.7658 61.0809 29.703 61.0488C29.6403 61.0167 29.5708 61 29.5003 61C29.4298 61 29.3603 61.0167 29.2976 61.0488C29.2348 61.0809 29.1805 61.1274 29.1392 61.1845C29.0979 61.2416 29.0708 61.3077 29.06 61.3774C29.0492 61.447 29.0551 61.5182 29.0771 61.5852L29.4127 62.5919L28.9531 62.1323C28.8738 62.053 28.7662 62.0084 28.654 62.0084C28.5418 62.0084 28.4341 62.053 28.3548 62.1323C28.2755 62.2117 28.2309 62.3193 28.2309 62.4315C28.2309 62.5437 28.2755 62.6513 28.3548 62.7307L28.8211 63.197C28.6343 63.2703 28.4602 63.3727 28.3053 63.5004L28.1339 62.8593C28.1203 62.8048 28.096 62.7535 28.0624 62.7085C28.0289 62.6635 27.9866 62.6256 27.9383 62.5971C27.8899 62.5686 27.8363 62.55 27.7806 62.5424C27.725 62.5348 27.6684 62.5383 27.6141 62.5528C27.5599 62.5673 27.509 62.5924 27.4646 62.6268C27.4201 62.6611 27.383 62.704 27.3553 62.7528C27.3276 62.8017 27.3098 62.8556 27.3032 62.9113C27.2965 62.9671 27.301 63.0236 27.3164 63.0776L27.4839 63.706L26.7807 62.9118C26.7255 62.8502 26.6544 62.805 26.5752 62.7814C26.4959 62.7578 26.4117 62.7566 26.3318 62.7779C26.252 62.7993 26.1796 62.8423 26.1227 62.9023C26.0658 62.9623 26.0267 63.0369 26.0097 63.1178C25.9602 63.359 26.1159 63.5952 26.3575 63.6447L27.3959 63.8575L26.7697 64.0251C26.6705 64.0516 26.5844 64.1133 26.5273 64.1986C26.4702 64.284 26.4461 64.3871 26.4595 64.4889C26.4729 64.5907 26.5228 64.6842 26.5999 64.7519C26.677 64.8196 26.7762 64.857 26.8788 64.857L26.9889 64.8426L27.627 64.6717C27.6083 64.7702 27.598 64.8702 27.5961 64.9704C27.5961 65.0728 27.6105 65.1714 27.6261 65.2696L26.988 65.0986C26.9343 65.0842 26.8783 65.0806 26.8232 65.0878C26.7681 65.0951 26.715 65.1131 26.6669 65.1409C26.6187 65.1686 26.5765 65.2056 26.5427 65.2497C26.5089 65.2938 26.484 65.3441 26.4696 65.3978C26.4552 65.4515 26.4516 65.5075 26.4588 65.5626C26.4661 65.6177 26.4841 65.6708 26.5119 65.719C26.5396 65.7671 26.5766 65.8093 26.6207 65.8431C26.6648 65.877 26.7151 65.9018 26.7688 65.9162L27.3964 66.0842L26.3575 66.2966C26.2762 66.3129 26.201 66.3517 26.1406 66.4084C26.0801 66.4652 26.0366 66.5377 26.0152 66.6178C25.9937 66.6979 25.995 66.7825 26.019 66.8618C26.043 66.9412 26.0887 67.0124 26.151 67.0672C26.1948 67.1061 26.2458 67.136 26.3012 67.1552C26.3566 67.1744 26.4152 67.1824 26.4736 67.1789C26.5321 67.1754 26.5893 67.1604 26.642 67.1348C26.6947 67.1092 26.7418 67.0734 26.7807 67.0295L27.4852 66.2348L27.3168 66.8628C27.3024 66.9165 27.2987 66.9725 27.306 67.0276C27.3132 67.0827 27.3312 67.1358 27.359 67.1839C27.3868 67.2321 27.4238 67.2743 27.4679 67.3081C27.512 67.3419 27.5623 67.3668 27.616 67.3811L27.726 67.3955C27.8191 67.3955 27.9095 67.3647 27.9833 67.308C28.0572 67.2513 28.1102 67.1719 28.1343 67.082L28.3061 66.4409C28.461 66.567 28.6324 66.6711 28.8224 66.7439L28.3552 67.2102C28.3159 67.2495 28.2848 67.2961 28.2635 67.3475C28.2422 67.3988 28.2313 67.4538 28.2313 67.5094C28.2313 67.5649 28.2422 67.6199 28.2635 67.6713C28.2848 67.7226 28.3159 67.7693 28.3552 67.8085C28.4346 67.8879 28.5422 67.9325 28.6544 67.9325C28.71 67.9325 28.765 67.9215 28.8163 67.9003C28.8676 67.879 28.9143 67.8478 28.9536 67.8085L29.2523 67.5094H29.359L29.0771 68.3553C29.0551 68.4222 29.0492 68.4934 29.06 68.5631C29.0708 68.6327 29.0979 68.6988 29.1392 68.7559C29.1805 68.8131 29.2348 68.8596 29.2976 68.8916C29.3603 68.9237 29.4298 68.9404 29.5003 68.9404C29.5708 68.9404 29.6403 68.9237 29.703 68.8916C29.7658 68.8596 29.8201 68.8131 29.8614 68.7559C29.9027 68.6988 29.9298 68.6327 29.9406 68.5631C29.9514 68.4934 29.9455 68.4222 29.9234 68.3553L29.6416 67.5094H29.7483L30.0474 67.8085C30.1268 67.8879 30.2344 67.9325 30.3466 67.9325C30.4588 67.9325 30.5664 67.8879 30.6458 67.8085C30.7251 67.7292 30.7697 67.6216 30.7697 67.5094C30.7697 67.3972 30.7251 67.2895 30.6458 67.2102L30.1795 66.7435C30.3666 66.6705 30.5409 66.5681 30.6957 66.44L30.8675 67.082C30.8916 67.1719 30.9447 67.2513 31.0185 67.308C31.0923 67.3647 31.1828 67.3955 31.2759 67.3955L31.3859 67.3811C31.4396 67.3668 31.4899 67.3419 31.534 67.3081C31.5781 67.2743 31.6151 67.2321 31.6428 67.1839C31.6706 67.1358 31.6886 67.0827 31.6959 67.0276C31.7031 66.9725 31.6994 66.9165 31.685 66.8628L31.5171 66.2365L32.2203 67.0295C32.2672 67.0824 32.326 67.1233 32.3918 67.149C32.4577 67.1747 32.5287 67.1844 32.599 67.1773C32.6693 67.1701 32.7369 67.1464 32.7962 67.108C32.8555 67.0697 32.9049 67.0177 32.9402 66.9565C32.9756 66.8953 32.9959 66.8266 32.9994 66.7561C33.003 66.6855 32.9897 66.6151 32.9608 66.5506C32.9318 66.4862 32.8879 66.4295 32.8328 66.3854C32.7776 66.3412 32.7127 66.3108 32.6435 66.2966ZM29.5003 66.0283C28.9168 66.0283 28.4424 65.554 28.4424 64.9704C28.4424 64.3869 28.9168 63.9125 29.5003 63.9125C30.0838 63.9125 30.5582 64.3869 30.5582 64.9704C30.5582 65.554 30.0838 66.0283 29.5003 66.0283Z" fill="white"/>
<circle cx="29.3852" cy="64.8084" r="1.26947" fill="white"/>
<path d="M46.6435 71.2966L45.6038 71.0838L46.2313 70.9162C46.285 70.9018 46.3353 70.877 46.3794 70.8431C46.4235 70.8093 46.4605 70.7671 46.4883 70.719C46.5161 70.6708 46.5341 70.6177 46.5413 70.5626C46.5486 70.5075 46.5449 70.4515 46.5305 70.3978C46.5161 70.3441 46.4913 70.2938 46.4575 70.2497C46.4236 70.2056 46.3814 70.1686 46.3333 70.1409C46.2852 70.1131 46.232 70.0951 46.1769 70.0878C46.1218 70.0806 46.0658 70.0842 46.0121 70.0986L45.374 70.2692C45.3897 70.1714 45.4041 70.0728 45.4041 69.9704C45.4041 69.868 45.3897 69.769 45.374 69.6713L46.013 69.8422L46.123 69.8566C46.2257 69.8565 46.3248 69.8192 46.4019 69.7515C46.4791 69.6837 46.529 69.5903 46.5423 69.4885C46.5557 69.3867 46.5316 69.2836 46.4745 69.1982C46.4175 69.1129 46.3314 69.0512 46.2322 69.0247L45.6046 68.8567L46.6435 68.6443C46.7127 68.6301 46.7776 68.5996 46.8328 68.5555C46.8879 68.5113 46.9318 68.4547 46.9608 68.3902C46.9897 68.3258 47.003 68.2554 46.9994 68.1848C46.9959 68.1142 46.9756 68.0455 46.9402 67.9843C46.9049 67.9231 46.8555 67.8712 46.7962 67.8328C46.7369 67.7944 46.6693 67.7707 46.599 67.7636C46.5287 67.7565 46.4577 67.7661 46.3918 67.7918C46.326 67.8175 46.2672 67.8585 46.2203 67.9113L45.5166 68.7043L45.685 68.0785C45.6995 68.0248 45.7032 67.9688 45.696 67.9137C45.6888 67.8586 45.6709 67.8054 45.6431 67.7572C45.5871 67.6599 45.4947 67.5889 45.3863 67.5597C45.2779 67.5305 45.1623 67.5456 45.065 67.6016C44.9677 67.6577 44.8967 67.75 44.8675 67.8584L44.6953 68.5004C44.5405 68.3725 44.3664 68.2701 44.1795 68.197L44.6458 67.7307C44.6851 67.6914 44.7162 67.6447 44.7375 67.5934C44.7588 67.5421 44.7697 67.487 44.7697 67.4315C44.7697 67.3759 44.7588 67.3209 44.7375 67.2696C44.7162 67.2182 44.6851 67.1716 44.6458 67.1323C44.6065 67.093 44.5598 67.0619 44.5085 67.0406C44.4572 67.0193 44.4022 67.0084 44.3466 67.0084C44.291 67.0084 44.236 67.0193 44.1847 67.0406C44.1334 67.0619 44.0867 67.093 44.0474 67.1323L43.5879 67.5919L43.9234 66.5852C43.9455 66.5182 43.9514 66.447 43.9406 66.3774C43.9298 66.3077 43.9027 66.2416 43.8614 66.1845C43.8201 66.1274 43.7658 66.0809 43.703 66.0488C43.6403 66.0167 43.5708 66 43.5003 66C43.4298 66 43.3603 66.0167 43.2976 66.0488C43.2348 66.0809 43.1805 66.1274 43.1392 66.1845C43.0979 66.2416 43.0708 66.3077 43.06 66.3774C43.0492 66.447 43.0551 66.5182 43.0771 66.5852L43.4127 67.5919L42.9531 67.1323C42.8738 67.053 42.7662 67.0084 42.654 67.0084C42.5418 67.0084 42.4341 67.053 42.3548 67.1323C42.2755 67.2117 42.2309 67.3193 42.2309 67.4315C42.2309 67.5437 42.2755 67.6513 42.3548 67.7307L42.8211 68.197C42.6343 68.2703 42.4602 68.3727 42.3053 68.5004L42.1339 67.8593C42.1203 67.8048 42.096 67.7535 42.0624 67.7085C42.0289 67.6635 41.9866 67.6256 41.9383 67.5971C41.8899 67.5686 41.8363 67.55 41.7806 67.5424C41.725 67.5348 41.6684 67.5383 41.6141 67.5528C41.5599 67.5673 41.509 67.5924 41.4646 67.6268C41.4201 67.6611 41.383 67.704 41.3553 67.7528C41.3276 67.8017 41.3098 67.8556 41.3032 67.9113C41.2965 67.9671 41.301 68.0236 41.3164 68.0776L41.4839 68.706L40.7807 67.9118C40.7255 67.8502 40.6544 67.805 40.5752 67.7814C40.4959 67.7578 40.4117 67.7566 40.3318 67.7779C40.252 67.7993 40.1796 67.8423 40.1227 67.9023C40.0658 67.9623 40.0267 68.0369 40.0097 68.1178C39.9602 68.359 40.1159 68.5952 40.3575 68.6447L41.3959 68.8575L40.7697 69.0251C40.6705 69.0516 40.5844 69.1133 40.5273 69.1986C40.4702 69.284 40.4461 69.3871 40.4595 69.4889C40.4729 69.5907 40.5228 69.6842 40.5999 69.7519C40.677 69.8196 40.7762 69.857 40.8788 69.857L40.9889 69.8426L41.627 69.6717C41.6083 69.7702 41.598 69.8702 41.5961 69.9704C41.5961 70.0728 41.6105 70.1714 41.6261 70.2696L40.988 70.0986C40.9343 70.0842 40.8783 70.0806 40.8232 70.0878C40.7681 70.0951 40.715 70.1131 40.6669 70.1409C40.6187 70.1686 40.5765 70.2056 40.5427 70.2497C40.5089 70.2938 40.484 70.3441 40.4696 70.3978C40.4552 70.4515 40.4516 70.5075 40.4588 70.5626C40.4661 70.6177 40.4841 70.6708 40.5119 70.719C40.5396 70.7671 40.5766 70.8093 40.6207 70.8431C40.6648 70.877 40.7151 70.9018 40.7688 70.9162L41.3964 71.0842L40.3575 71.2966C40.2762 71.3129 40.201 71.3517 40.1406 71.4084C40.0801 71.4652 40.0366 71.5377 40.0152 71.6178C39.9937 71.6979 39.995 71.7825 40.019 71.8618C40.043 71.9412 40.0887 72.0124 40.151 72.0672C40.1948 72.1061 40.2458 72.136 40.3012 72.1552C40.3566 72.1744 40.4152 72.1824 40.4736 72.1789C40.5321 72.1754 40.5893 72.1604 40.642 72.1348C40.6947 72.1092 40.7418 72.0734 40.7807 72.0295L41.4852 71.2348L41.3168 71.8628C41.3024 71.9165 41.2987 71.9725 41.306 72.0276C41.3132 72.0827 41.3312 72.1358 41.359 72.1839C41.3868 72.2321 41.4238 72.2743 41.4679 72.3081C41.512 72.3419 41.5623 72.3668 41.616 72.3811L41.726 72.3955C41.8191 72.3955 41.9095 72.3647 41.9833 72.308C42.0572 72.2513 42.1102 72.1719 42.1343 72.082L42.3061 71.4409C42.461 71.567 42.6324 71.6711 42.8224 71.7439L42.3552 72.2102C42.3159 72.2495 42.2848 72.2961 42.2635 72.3475C42.2422 72.3988 42.2313 72.4538 42.2313 72.5094C42.2313 72.5649 42.2422 72.6199 42.2635 72.6713C42.2848 72.7226 42.3159 72.7693 42.3552 72.8085C42.4346 72.8879 42.5422 72.9325 42.6544 72.9325C42.71 72.9325 42.765 72.9215 42.8163 72.9003C42.8676 72.879 42.9143 72.8478 42.9536 72.8085L43.2523 72.5094H43.359L43.0771 73.3553C43.0551 73.4222 43.0492 73.4934 43.06 73.5631C43.0708 73.6327 43.0979 73.6988 43.1392 73.7559C43.1805 73.8131 43.2348 73.8596 43.2976 73.8916C43.3603 73.9237 43.4298 73.9404 43.5003 73.9404C43.5708 73.9404 43.6403 73.9237 43.703 73.8916C43.7658 73.8596 43.8201 73.8131 43.8614 73.7559C43.9027 73.6988 43.9298 73.6327 43.9406 73.5631C43.9514 73.4934 43.9455 73.4222 43.9234 73.3553L43.6416 72.5094H43.7483L44.0474 72.8085C44.1268 72.8879 44.2344 72.9325 44.3466 72.9325C44.4588 72.9325 44.5664 72.8879 44.6458 72.8085C44.7251 72.7292 44.7697 72.6216 44.7697 72.5094C44.7697 72.3972 44.7251 72.2895 44.6458 72.2102L44.1795 71.7435C44.3666 71.6705 44.5409 71.5681 44.6957 71.44L44.8675 72.082C44.8916 72.1719 44.9447 72.2513 45.0185 72.308C45.0923 72.3647 45.1828 72.3955 45.2759 72.3955L45.3859 72.3811C45.4396 72.3668 45.4899 72.3419 45.534 72.3081C45.5781 72.2743 45.6151 72.2321 45.6428 72.1839C45.6706 72.1358 45.6886 72.0827 45.6959 72.0276C45.7031 71.9725 45.6994 71.9165 45.685 71.8628L45.5171 71.2365L46.2203 72.0295C46.2672 72.0824 46.326 72.1233 46.3918 72.149C46.4577 72.1747 46.5287 72.1844 46.599 72.1773C46.6693 72.1701 46.7369 72.1464 46.7962 72.108C46.8555 72.0697 46.9049 72.0177 46.9402 71.9565C46.9756 71.8953 46.9959 71.8266 46.9994 71.7561C47.003 71.6855 46.9897 71.6151 46.9608 71.5506C46.9318 71.4862 46.8879 71.4295 46.8328 71.3854C46.7776 71.3412 46.7127 71.3108 46.6435 71.2966ZM43.5003 71.0283C42.9168 71.0283 42.4424 70.554 42.4424 69.9704C42.4424 69.3869 42.9168 68.9125 43.5003 68.9125C44.0838 68.9125 44.5582 69.3869 44.5582 69.9704C44.5582 70.554 44.0838 71.0283 43.5003 71.0283Z" fill="white"/>
<circle cx="43.3852" cy="69.8084" r="1.26947" fill="white"/>
<path d="M61.6435 66.2966L60.6038 66.0838L61.2313 65.9162C61.285 65.9018 61.3353 65.877 61.3794 65.8431C61.4235 65.8093 61.4605 65.7671 61.4883 65.719C61.5161 65.6708 61.5341 65.6177 61.5413 65.5626C61.5486 65.5075 61.5449 65.4515 61.5305 65.3978C61.5161 65.3441 61.4913 65.2938 61.4575 65.2497C61.4236 65.2056 61.3814 65.1686 61.3333 65.1409C61.2852 65.1131 61.232 65.0951 61.1769 65.0878C61.1218 65.0806 61.0658 65.0842 61.0121 65.0986L60.374 65.2692C60.3897 65.1714 60.4041 65.0728 60.4041 64.9704C60.4041 64.868 60.3897 64.769 60.374 64.6713L61.013 64.8422L61.123 64.8566C61.2257 64.8565 61.3248 64.8192 61.4019 64.7515C61.4791 64.6837 61.529 64.5903 61.5423 64.4885C61.5557 64.3867 61.5316 64.2836 61.4745 64.1982C61.4175 64.1129 61.3314 64.0512 61.2322 64.0247L60.6046 63.8567L61.6435 63.6443C61.7127 63.6301 61.7776 63.5996 61.8328 63.5555C61.8879 63.5113 61.9318 63.4547 61.9608 63.3902C61.9897 63.3258 62.003 63.2554 61.9994 63.1848C61.9959 63.1142 61.9756 63.0455 61.9402 62.9843C61.9049 62.9231 61.8555 62.8712 61.7962 62.8328C61.7369 62.7944 61.6693 62.7707 61.599 62.7636C61.5287 62.7565 61.4577 62.7661 61.3918 62.7918C61.326 62.8175 61.2672 62.8585 61.2203 62.9113L60.5166 63.7043L60.685 63.0785C60.6995 63.0248 60.7032 62.9688 60.696 62.9137C60.6888 62.8586 60.6709 62.8054 60.6431 62.7572C60.5871 62.6599 60.4947 62.5889 60.3863 62.5597C60.2779 62.5305 60.1623 62.5456 60.065 62.6016C59.9677 62.6577 59.8967 62.75 59.8675 62.8584L59.6953 63.5004C59.5405 63.3725 59.3664 63.2701 59.1795 63.197L59.6458 62.7307C59.6851 62.6914 59.7162 62.6447 59.7375 62.5934C59.7588 62.5421 59.7697 62.487 59.7697 62.4315C59.7697 62.3759 59.7588 62.3209 59.7375 62.2696C59.7162 62.2182 59.6851 62.1716 59.6458 62.1323C59.6065 62.093 59.5598 62.0619 59.5085 62.0406C59.4572 62.0193 59.4022 62.0084 59.3466 62.0084C59.291 62.0084 59.236 62.0193 59.1847 62.0406C59.1334 62.0619 59.0867 62.093 59.0474 62.1323L58.5879 62.5919L58.9234 61.5852C58.9455 61.5182 58.9514 61.447 58.9406 61.3774C58.9298 61.3077 58.9027 61.2416 58.8614 61.1845C58.8201 61.1274 58.7658 61.0809 58.703 61.0488C58.6403 61.0167 58.5708 61 58.5003 61C58.4298 61 58.3603 61.0167 58.2976 61.0488C58.2348 61.0809 58.1805 61.1274 58.1392 61.1845C58.0979 61.2416 58.0708 61.3077 58.06 61.3774C58.0492 61.447 58.0551 61.5182 58.0771 61.5852L58.4127 62.5919L57.9531 62.1323C57.8738 62.053 57.7662 62.0084 57.654 62.0084C57.5418 62.0084 57.4341 62.053 57.3548 62.1323C57.2755 62.2117 57.2309 62.3193 57.2309 62.4315C57.2309 62.5437 57.2755 62.6513 57.3548 62.7307L57.8211 63.197C57.6343 63.2703 57.4602 63.3727 57.3053 63.5004L57.1339 62.8593C57.1203 62.8048 57.096 62.7535 57.0624 62.7085C57.0289 62.6635 56.9866 62.6256 56.9383 62.5971C56.8899 62.5686 56.8363 62.55 56.7806 62.5424C56.725 62.5348 56.6684 62.5383 56.6141 62.5528C56.5599 62.5673 56.509 62.5924 56.4646 62.6268C56.4201 62.6611 56.383 62.704 56.3553 62.7528C56.3276 62.8017 56.3098 62.8556 56.3032 62.9113C56.2965 62.9671 56.301 63.0236 56.3164 63.0776L56.4839 63.706L55.7807 62.9118C55.7255 62.8502 55.6544 62.805 55.5752 62.7814C55.4959 62.7578 55.4117 62.7566 55.3318 62.7779C55.252 62.7993 55.1796 62.8423 55.1227 62.9023C55.0658 62.9623 55.0267 63.0369 55.0097 63.1178C54.9602 63.359 55.1159 63.5952 55.3575 63.6447L56.3959 63.8575L55.7697 64.0251C55.6705 64.0516 55.5844 64.1133 55.5273 64.1986C55.4702 64.284 55.4461 64.3871 55.4595 64.4889C55.4729 64.5907 55.5228 64.6842 55.5999 64.7519C55.677 64.8196 55.7762 64.857 55.8788 64.857L55.9889 64.8426L56.627 64.6717C56.6083 64.7702 56.598 64.8702 56.5961 64.9704C56.5961 65.0728 56.6105 65.1714 56.6261 65.2696L55.988 65.0986C55.9343 65.0842 55.8783 65.0806 55.8232 65.0878C55.7681 65.0951 55.715 65.1131 55.6669 65.1409C55.6187 65.1686 55.5765 65.2056 55.5427 65.2497C55.5089 65.2938 55.484 65.3441 55.4696 65.3978C55.4552 65.4515 55.4516 65.5075 55.4588 65.5626C55.4661 65.6177 55.4841 65.6708 55.5119 65.719C55.5396 65.7671 55.5766 65.8093 55.6207 65.8431C55.6648 65.877 55.7151 65.9018 55.7688 65.9162L56.3964 66.0842L55.3575 66.2966C55.2762 66.3129 55.201 66.3517 55.1406 66.4084C55.0801 66.4652 55.0366 66.5377 55.0152 66.6178C54.9937 66.6979 54.995 66.7825 55.019 66.8618C55.043 66.9412 55.0887 67.0124 55.151 67.0672C55.1948 67.1061 55.2458 67.136 55.3012 67.1552C55.3566 67.1744 55.4152 67.1824 55.4736 67.1789C55.5321 67.1754 55.5893 67.1604 55.642 67.1348C55.6947 67.1092 55.7418 67.0734 55.7807 67.0295L56.4852 66.2348L56.3168 66.8628C56.3024 66.9165 56.2987 66.9725 56.306 67.0276C56.3132 67.0827 56.3312 67.1358 56.359 67.1839C56.3868 67.2321 56.4238 67.2743 56.4679 67.3081C56.512 67.3419 56.5623 67.3668 56.616 67.3811L56.726 67.3955C56.8191 67.3955 56.9095 67.3647 56.9833 67.308C57.0572 67.2513 57.1102 67.1719 57.1343 67.082L57.3061 66.4409C57.461 66.567 57.6324 66.6711 57.8224 66.7439L57.3552 67.2102C57.3159 67.2495 57.2848 67.2961 57.2635 67.3475C57.2422 67.3988 57.2313 67.4538 57.2313 67.5094C57.2313 67.5649 57.2422 67.6199 57.2635 67.6713C57.2848 67.7226 57.3159 67.7693 57.3552 67.8085C57.4346 67.8879 57.5422 67.9325 57.6544 67.9325C57.71 67.9325 57.765 67.9215 57.8163 67.9003C57.8676 67.879 57.9143 67.8478 57.9536 67.8085L58.2523 67.5094H58.359L58.0771 68.3553C58.0551 68.4222 58.0492 68.4934 58.06 68.5631C58.0708 68.6327 58.0979 68.6988 58.1392 68.7559C58.1805 68.8131 58.2348 68.8596 58.2976 68.8916C58.3603 68.9237 58.4298 68.9404 58.5003 68.9404C58.5708 68.9404 58.6403 68.9237 58.703 68.8916C58.7658 68.8596 58.8201 68.8131 58.8614 68.7559C58.9027 68.6988 58.9298 68.6327 58.9406 68.5631C58.9514 68.4934 58.9455 68.4222 58.9234 68.3553L58.6416 67.5094H58.7483L59.0474 67.8085C59.1268 67.8879 59.2344 67.9325 59.3466 67.9325C59.4588 67.9325 59.5664 67.8879 59.6458 67.8085C59.7251 67.7292 59.7697 67.6216 59.7697 67.5094C59.7697 67.3972 59.7251 67.2895 59.6458 67.2102L59.1795 66.7435C59.3666 66.6705 59.5409 66.5681 59.6957 66.44L59.8675 67.082C59.8916 67.1719 59.9447 67.2513 60.0185 67.308C60.0923 67.3647 60.1828 67.3955 60.2759 67.3955L60.3859 67.3811C60.4396 67.3668 60.4899 67.3419 60.534 67.3081C60.5781 67.2743 60.6151 67.2321 60.6428 67.1839C60.6706 67.1358 60.6886 67.0827 60.6959 67.0276C60.7031 66.9725 60.6994 66.9165 60.685 66.8628L60.5171 66.2365L61.2203 67.0295C61.2672 67.0824 61.326 67.1233 61.3918 67.149C61.4577 67.1747 61.5287 67.1844 61.599 67.1773C61.6693 67.1701 61.7369 67.1464 61.7962 67.108C61.8555 67.0697 61.9049 67.0177 61.9402 66.9565C61.9756 66.8953 61.9959 66.8266 61.9994 66.7561C62.003 66.6855 61.9897 66.6151 61.9608 66.5506C61.9318 66.4862 61.8879 66.4295 61.8328 66.3854C61.7776 66.3412 61.7127 66.3108 61.6435 66.2966ZM58.5003 66.0283C57.9168 66.0283 57.4424 65.554 57.4424 64.9704C57.4424 64.3869 57.9168 63.9125 58.5003 63.9125C59.0838 63.9125 59.5582 64.3869 59.5582 64.9704C59.5582 65.554 59.0838 66.0283 58.5003 66.0283Z" fill="white"/>
<circle cx="58.3852" cy="64.8084" r="1.26947" fill="white"/>
</svg>
