<svg width="100" height="100" viewBox="0 0 100 100" fill="none" xmlns="http://www.w3.org/2000/svg">
<path d="M56.1764 24.9767C71.6023 24.9767 80.3608 34.8244 81.6317 46.7257H82.0198C91.949 46.7257 100 54.4699 100 64.0235C100 73.577 91.949 81.3212 82.0198 81.3212H30.3331C20.4039 81.3212 12.3529 73.577 12.3529 64.0235C12.3529 54.4699 20.4039 46.7257 30.3331 46.7257H30.7212C31.9984 34.7431 40.7443 24.9767 56.1764 24.9767ZM11.1196 41.88C11.3602 42.5741 11.3491 43.3307 11.0882 44.0175C10.8272 44.7042 10.3331 45.2773 9.69218 45.6363L9.17882 45.8617L4.16415 47.5896C3.42411 47.8486 2.61384 47.8204 1.89358 47.5107C1.17332 47.2009 0.595531 46.6321 0.274476 45.9168C-0.0465789 45.2016 -0.0875161 44.3918 0.159761 43.6478C0.407037 42.9038 0.92452 42.2796 1.60987 41.8988L2.12323 41.6734L7.14415 39.9455C7.92871 39.6763 8.78804 39.7295 9.53343 40.0934C10.2788 40.4573 10.8493 41.1021 11.1196 41.8863V41.88ZM43.1546 15.5859C45.2331 16.6001 47.0674 17.9211 48.62 19.4674C37.589 21.7463 29.6507 29.0648 26.439 39.2256L26.0321 40.6279L25.7441 41.7987L24.7049 41.9865C21.9276 42.5583 19.2765 43.6273 16.8792 45.1418C14.4594 41.3724 13.3384 36.9152 13.6872 32.4496C14.0359 27.9839 15.8353 23.7548 18.8109 20.4068C21.7866 17.0588 25.7754 14.7756 30.1692 13.9053C34.5631 13.0349 39.1211 13.6251 43.1483 15.5859H43.1546ZM5.57277 16.6502L6.09239 16.8505L10.8629 19.1732C11.5662 19.5151 12.116 20.1078 12.4042 20.8347C12.6924 21.5616 12.6981 22.37 12.4202 23.1009C12.1423 23.8319 11.6009 24.4323 10.9025 24.784C10.2042 25.1358 9.39942 25.2135 8.64668 25.0017L8.11453 24.8014L3.35029 22.4787C2.64702 22.1369 2.09717 21.5441 1.80896 20.8172C1.52075 20.0903 1.51504 19.2819 1.79295 18.551C2.07087 17.8201 2.61229 17.2196 3.31066 16.8679C4.00902 16.5161 4.81376 16.4384 5.56651 16.6502H5.57277ZM49.8533 1.78149C50.5125 2.1031 51.0378 2.64593 51.3375 3.31528C51.6373 3.98463 51.6925 4.73798 51.4936 5.44389L51.2933 5.96977L48.9706 10.7403C48.6287 11.4435 48.036 11.9934 47.3091 12.2816C46.5822 12.5698 45.7737 12.5755 45.0428 12.2976C44.3119 12.0197 43.7115 11.4783 43.3597 10.7799C43.008 10.0815 42.9303 9.2768 43.1421 8.52406L43.3424 7.99192L45.6651 3.22141C45.8454 2.85093 46.097 2.5197 46.4056 2.24669C46.7142 1.97369 47.0737 1.7643 47.4633 1.63052C47.853 1.49675 48.2653 1.44122 48.6765 1.46713C49.0877 1.49303 49.4898 1.59987 49.8596 1.78149H49.8533ZM26.126 1.58116L26.3577 2.09452L28.0856 7.11545C28.3396 7.85453 28.3079 8.6619 27.9968 9.37883C27.6857 10.0958 27.1177 10.6704 26.4044 10.9898C25.6911 11.3091 24.8842 11.3501 24.1422 11.1047C23.4002 10.8593 22.7769 10.3452 22.3948 9.66347L22.1631 9.15011L20.4415 4.13544C20.1915 3.3981 20.2252 2.59405 20.5361 1.88024C20.847 1.16643 21.4128 0.594115 22.123 0.275004C22.8331 -0.0441074 23.6368 -0.0871039 24.3769 0.154407C25.1171 0.395919 25.7407 0.904602 26.126 1.58116Z" fill="white"/>
<ellipse cx="14.1273" cy="4.35608" rx="14.1273" ry="4.35608" transform="matrix(0.472091 -0.88155 0.970739 0.240135 25 97.908)" fill="white"/>
<ellipse cx="14.1273" cy="4.35608" rx="14.1273" ry="4.35608" transform="matrix(0.472091 -0.88155 0.970739 0.240135 45 97.908)" fill="white"/>
<ellipse cx="14.1273" cy="4.35608" rx="14.1273" ry="4.35608" transform="matrix(0.472091 -0.88155 0.970739 0.240135 65 97.908)" fill="white"/>
</svg>
