<svg width="52" height="32" viewBox="0 0 52 32" fill="none" xmlns="http://www.w3.org/2000/svg">
<path d="M11.7467 28.7923C11.2766 26.6901 11.285 24.5092 11.7713 22.4108C12.2575 20.3124 13.2092 18.35 14.5559 16.6689C15.9026 14.9878 17.61 13.6308 19.5518 12.6983C21.4935 11.7659 23.62 11.2817 25.7741 11.2817C27.9281 11.2817 30.0546 11.7659 31.9964 12.6983C33.9381 13.6308 35.6455 14.9878 36.9922 16.6689C38.3389 18.35 39.2906 20.3124 39.7768 22.4108C40.2631 24.5092 40.2715 26.6901 39.8014 28.7923H49.7197C50.1451 28.7923 50.553 28.9613 50.8538 29.262C51.1546 29.5628 51.3236 29.9708 51.3236 30.3961C51.3236 30.8215 51.1546 31.2295 50.8538 31.5302C50.553 31.831 50.1451 32 49.7197 32H1.60386C1.17849 32 0.770543 31.831 0.469761 31.5302C0.168978 31.2295 0 30.8215 0 30.3961C0 29.9708 0.168978 29.5628 0.469761 29.262C0.770543 28.9613 1.17849 28.7923 1.60386 28.7923H11.7467ZM9.86696 7.56356L9.64563 7.37751C9.31631 7.14878 8.91327 7.05168 8.51592 7.10537C8.11857 7.15905 7.75574 7.35962 7.49894 7.66755C7.24213 7.97547 7.10998 8.36842 7.12852 8.76895C7.14705 9.16948 7.31494 9.54854 7.5991 9.83142L10.3513 12.5836L10.5759 12.7697C10.9052 12.9984 11.3082 13.0955 11.7056 13.0418C12.1029 12.9882 12.4657 12.7876 12.7226 12.4797C12.9794 12.1717 13.1115 11.7788 13.093 11.3783C13.0744 10.9777 12.9065 10.5987 12.6224 10.3158L9.86696 7.56356ZM44.0709 9.60688C44.296 9.2774 44.3902 8.87585 44.3351 8.48065C44.2799 8.08546 44.0795 7.725 43.7729 7.46967C43.4662 7.21434 43.0754 7.08248 42.6768 7.09984C42.2781 7.11721 41.9003 7.28254 41.617 7.56356L38.8616 10.3158L38.6755 10.5403C38.4504 10.8698 38.3563 11.2714 38.4114 11.6666C38.4665 12.0618 38.6669 12.4222 38.9736 12.6775C39.2802 12.9329 39.671 13.0647 40.0697 13.0474C40.4683 13.03 40.8462 12.8647 41.1294 12.5836L43.8849 9.83142L44.0709 9.60688ZM27.3298 1.31812C27.2584 0.923742 27.0419 0.570387 26.723 0.327641C26.4041 0.0848948 26.0058 -0.0296498 25.6067 0.00656373C25.2075 0.0427772 24.8364 0.227124 24.5664 0.523302C24.2964 0.819481 24.147 1.20603 24.1477 1.60682V5.49779L24.1734 5.78648C24.2448 6.18086 24.4613 6.53422 24.7802 6.77696C25.0991 7.01971 25.4974 7.13425 25.8965 7.09804C26.2957 7.06183 26.6668 6.87748 26.9368 6.5813C27.2069 6.28512 27.3562 5.89858 27.3555 5.49779V1.60361L27.3298 1.31812Z" fill="white"/>
</svg>
