<svg width="32" height="32" viewBox="0 0 32 32" fill="none" xmlns="http://www.w3.org/2000/svg">
<path d="M16 0C16.3183 0 16.6235 0.126428 16.8485 0.351472C17.0736 0.576515 17.2 0.88174 17.2 1.2V3.6C17.2 3.91826 17.0736 4.22348 16.8485 4.44853C16.6235 4.67357 16.3183 4.8 16 4.8C15.6817 4.8 15.3765 4.67357 15.1515 4.44853C14.9264 4.22348 14.8 3.91826 14.8 3.6V1.2C14.8 0.88174 14.9264 0.576515 15.1515 0.351472C15.3765 0.126428 15.6817 0 16 0ZM24 16C24 18.1217 23.1571 20.1566 21.6569 21.6569C20.1566 23.1571 18.1217 24 16 24C13.8783 24 11.8434 23.1571 10.3431 21.6569C8.84285 20.1566 8 18.1217 8 16C8 13.8783 8.84285 11.8434 10.3431 10.3431C11.8434 8.84285 13.8783 8 16 8C18.1217 8 20.1566 8.84285 21.6569 10.3431C23.1571 11.8434 24 13.8783 24 16ZM30.8 17.2C31.1183 17.2 31.4235 17.0736 31.6485 16.8485C31.8736 16.6235 32 16.3183 32 16C32 15.6817 31.8736 15.3765 31.6485 15.1515C31.4235 14.9264 31.1183 14.8 30.8 14.8H28.4C28.0817 14.8 27.7765 14.9264 27.5515 15.1515C27.3264 15.3765 27.2 15.6817 27.2 16C27.2 16.3183 27.3264 16.6235 27.5515 16.8485C27.7765 17.0736 28.0817 17.2 28.4 17.2H30.8ZM16 27.2C16.3183 27.2 16.6235 27.3264 16.8485 27.5515C17.0736 27.7765 17.2 28.0817 17.2 28.4V30.8C17.2 31.1183 17.0736 31.4235 16.8485 31.6485C16.6235 31.8736 16.3183 32 16 32C15.6817 32 15.3765 31.8736 15.1515 31.6485C14.9264 31.4235 14.8 31.1183 14.8 30.8V28.4C14.8 28.0817 14.9264 27.7765 15.1515 27.5515C15.3765 27.3264 15.6817 27.2 16 27.2ZM3.6 17.2C3.91826 17.2 4.22348 17.0736 4.44853 16.8485C4.67357 16.6235 4.8 16.3183 4.8 16C4.8 15.6817 4.67357 15.3765 4.44853 15.1515C4.22348 14.9264 3.91826 14.8 3.6 14.8H1.2C0.88174 14.8 0.576515 14.9264 0.351472 15.1515C0.126428 15.3765 0 15.6817 0 16C0 16.3183 0.126428 16.6235 0.351472 16.8485C0.576515 17.0736 0.88174 17.2 1.2 17.2H3.6ZM3.552 3.552C3.777 3.32728 4.082 3.20106 4.4 3.20106C4.718 3.20106 5.023 3.32728 5.248 3.552L7.648 5.952C7.85997 6.17948 7.97537 6.48035 7.96988 6.79124C7.9644 7.10212 7.83846 7.39873 7.6186 7.6186C7.39873 7.83846 7.10212 7.9644 6.79124 7.96988C6.48035 7.97537 6.17948 7.85997 5.952 7.648L3.552 5.248C3.32728 5.023 3.20106 4.718 3.20106 4.4C3.20106 4.082 3.32728 3.777 3.552 3.552ZM5.248 28.448C5.13814 28.5659 5.00566 28.6605 4.85846 28.726C4.71126 28.7916 4.55236 28.8269 4.39124 28.8297C4.23011 28.8326 4.07006 28.8029 3.92064 28.7426C3.77122 28.6822 3.63549 28.5924 3.52154 28.4785C3.40759 28.3645 3.31776 28.2288 3.2574 28.0794C3.19705 27.9299 3.16741 27.7699 3.17025 27.6088C3.1731 27.4476 3.20836 27.2887 3.27395 27.1415C3.33954 26.9943 3.4341 26.8619 3.552 26.752L5.952 24.352C6.06186 24.2341 6.19434 24.1395 6.34154 24.0739C6.48874 24.0084 6.64764 23.9731 6.80876 23.9703C6.96989 23.9674 7.12994 23.9971 7.27936 24.0574C7.42878 24.1178 7.56451 24.2076 7.67846 24.3215C7.79241 24.4355 7.88224 24.5712 7.9426 24.7206C8.00295 24.8701 8.03259 25.0301 8.02975 25.1912C8.0269 25.3524 7.99164 25.5113 7.92605 25.6585C7.86046 25.8057 7.7659 25.9381 7.648 26.048L5.248 28.448ZM28.448 3.552C28.223 3.32728 27.918 3.20106 27.6 3.20106C27.282 3.20106 26.977 3.32728 26.752 3.552L24.352 5.952C24.14 6.17948 24.0246 6.48035 24.0301 6.79124C24.0356 7.10212 24.1615 7.39873 24.3814 7.6186C24.6013 7.83846 24.8979 7.9644 25.2088 7.96988C25.5196 7.97537 25.8205 7.85997 26.048 7.648L28.448 5.248C28.6727 5.023 28.7989 4.718 28.7989 4.4C28.7989 4.082 28.6727 3.777 28.448 3.552ZM26.752 28.448C26.8619 28.5659 26.9943 28.6605 27.1415 28.726C27.2887 28.7916 27.4476 28.8269 27.6088 28.8297C27.7699 28.8326 27.9299 28.8029 28.0794 28.7426C28.2288 28.6822 28.3645 28.5924 28.4785 28.4785C28.5924 28.3645 28.6822 28.2288 28.7426 28.0794C28.8029 27.9299 28.8326 27.7699 28.8297 27.6088C28.8269 27.4476 28.7916 27.2887 28.726 27.1415C28.6605 26.9943 28.5659 26.8619 28.448 26.752L26.048 24.352C25.9381 24.2341 25.8057 24.1395 25.6585 24.0739C25.5113 24.0084 25.3524 23.9731 25.1912 23.9703C25.0301 23.9674 24.8701 23.9971 24.7206 24.0574C24.5712 24.1178 24.4355 24.2076 24.3215 24.3215C24.2076 24.4355 24.1178 24.5712 24.0574 24.7206C23.9971 24.8701 23.9674 25.0301 23.9703 25.1912C23.9731 25.3524 24.0084 25.5113 24.0739 25.6585C24.1395 25.8057 24.2341 25.9381 24.352 26.048L26.752 28.448Z" fill="white"/>
</svg>
