<svg width="32" height="32" viewBox="0 0 32 32" fill="none" xmlns="http://www.w3.org/2000/svg">
<path d="M15.28 0C13.7598 8.44353e-05 12.2866 0.619784 11.1111 1.75367C9.93547 2.88756 9.13012 4.46559 8.832 6.21929C8.76469 6.70084 8.85898 7.19432 9.09499 7.59566C9.33099 7.997 9.69025 8.27481 10.097 8.37052C10.5038 8.46623 10.9262 8.37234 11.2753 8.10867C11.6243 7.84499 11.8727 7.43214 11.968 6.95718C12.1212 6.05659 12.5349 5.24629 13.1388 4.66421C13.7427 4.08214 14.4993 3.76426 15.28 3.76471H15.6C16.5548 3.76471 17.4705 4.21092 18.1456 5.00519C18.8207 5.79947 19.2 6.87673 19.2 8C19.2 9.12327 18.8207 10.2005 18.1456 10.9948C17.4705 11.7891 16.5548 12.2353 15.6 12.2353H1.6C1.17565 12.2353 0.768687 12.4336 0.468629 12.7866C0.168571 13.1396 0 13.6184 0 14.1176C0 14.6169 0.168571 15.0957 0.468629 15.4487C0.768687 15.8017 1.17565 16 1.6 16H15.6C17.4035 16 19.1331 15.1571 20.4083 13.6569C21.6836 12.1566 22.4 10.1217 22.4 8C22.4 5.87827 21.6836 3.84344 20.4083 2.34315C19.1331 0.842855 17.4035 3.16163e-08 15.6 0H15.28ZM26.912 11.2941C25.8423 11.2979 24.8007 11.6968 23.934 12.4344C23.0673 13.172 22.4194 14.2111 22.0816 15.4052C21.9475 15.8789 21.9789 16.396 22.1688 16.8425C22.3588 17.2891 22.6917 17.6286 23.0944 17.7864C23.4971 17.9441 23.9366 17.9072 24.3162 17.6837C24.6957 17.4603 24.9843 17.0686 25.1184 16.5948C25.3776 15.6781 26.1104 15.0588 26.9136 15.0588C27.9536 15.0588 28.8 16.0527 28.8 17.28V17.4118C28.8 18.7106 27.904 19.7647 26.8 19.7647H1.6C1.17565 19.7647 0.768687 19.963 0.468629 20.316C0.168571 20.669 0 21.1478 0 21.6471C0 22.1463 0.168571 22.6251 0.468629 22.9781C0.768687 23.3311 1.17565 23.5294 1.6 23.5294H20.4C21.504 23.5294 22.4 24.5835 22.4 25.8824V26.0141C22.4 26.6032 22.2011 27.1682 21.847 27.5847C21.4929 28.0013 21.0127 28.2353 20.512 28.2353C19.7104 28.2353 18.9776 27.6141 18.7184 26.6993C18.5843 26.2255 18.2957 25.8338 17.9162 25.6104C17.7282 25.4997 17.5236 25.4337 17.314 25.4161C17.1043 25.3985 16.8938 25.4297 16.6944 25.5078C16.495 25.5859 16.3106 25.7094 16.1518 25.8714C15.993 26.0333 15.8629 26.2305 15.7688 26.4516C15.5789 26.8981 15.5475 27.4152 15.6816 27.8889C16.0195 29.0833 16.6677 30.1226 17.5346 30.8603C18.4016 31.5979 19.4437 31.9966 20.5136 32C21.8627 31.9995 23.1565 31.3686 24.1103 30.2461C25.0642 29.1236 25.6 27.6013 25.6 26.0141V25.8824C25.6004 25.0746 25.4645 24.2748 25.2 23.5294H26.8C27.4829 23.5294 28.1591 23.3712 28.79 23.0637C29.4208 22.7563 29.9941 22.3057 30.477 21.7376C30.9598 21.1695 31.3429 20.4951 31.6042 19.7529C31.8655 19.0107 32 18.2151 32 17.4118V17.28C32 15.6924 31.4639 14.1699 30.5098 13.0473C29.5556 11.9248 28.2614 11.2941 26.912 11.2941Z" fill="white"/>
</svg>
