<svg width="120" height="120" viewBox="0 0 120 120" fill="none" xmlns="http://www.w3.org/2000/svg">
<path fill-rule="evenodd" clip-rule="evenodd" d="M120 60C120 93.1371 93.1371 120 60 120C26.8629 120 0 93.1371 0 60C0 26.8629 26.8629 0 60 0C93.1371 0 120 26.8629 120 60ZM63.75 101.25V112.5H56.25V101.25H63.75ZM112.5 56.25H101.25V63.75H112.5V56.25ZM7.5 56.25H18.75V63.75H7.5V56.25ZM63.75 18.75V7.5H56.25V18.75H63.75Z" fill="white"/>
<path d="M32.1399 50.4251C29.4184 47.5372 32.1095 42.8761 35.9712 43.7891L61.0965 49.7288L87.9474 78.2216L49.8465 69.2144L32.1399 50.4251Z" fill="#000032"/>
</svg>
