<svg width="20" height="20" viewBox="0 0 20 20" fill="none" xmlns="http://www.w3.org/2000/svg">
<path d="M9.99972 11.6999H10C11.2804 11.6999 12.5409 11.8504 13.7822 12.1514C15.0227 12.4522 16.2463 12.9031 17.4534 13.5056C17.949 13.7626 18.3462 14.1333 18.6496 14.6272C18.9508 15.1175 19.1007 15.6513 19.1 16.2393V16.2399V19.0999H0.900024V16.2399C0.900024 15.6508 1.05042 15.1164 1.35166 14.626C1.65515 14.132 2.05195 13.7618 2.54666 13.5056C3.75375 12.9023 4.97737 12.451 6.21786 12.1502C7.45909 11.8492 8.71943 11.6991 9.99972 11.6999ZM10 9.4999C8.81369 9.4999 7.81056 9.08333 6.96358 8.23635C6.1166 7.38937 5.70002 6.38624 5.70002 5.1999C5.70002 4.01356 6.1166 3.01044 6.96358 2.16346C7.81056 1.31648 8.81369 0.899902 10 0.899902C11.1864 0.899902 12.1895 1.31648 13.0365 2.16346C13.8834 3.01044 14.3 4.01356 14.3 5.1999C14.3 6.38624 13.8834 7.38937 13.0365 8.23635C12.1895 9.08333 11.1864 9.4999 10 9.4999Z" fill="#000032" stroke="white"/>
</svg>
