<svg width="32" height="32" viewBox="0 0 32 32" fill="none" xmlns="http://www.w3.org/2000/svg">
<path d="M21.9235 16.4545H27.7982H29.9541L28.5616 18.1004L24.5093 22.8904L24.501 22.9001L24.4926 22.9096C24.4613 22.9447 24.4287 22.9957 24.4037 23.0635C24.3786 23.1313 24.3637 23.2091 24.3628 23.2913C24.3619 23.3734 24.3751 23.4522 24.399 23.5216C24.4229 23.5911 24.4551 23.6443 24.4866 23.6816C24.5179 23.7186 24.5458 23.7368 24.5631 23.7451C24.5794 23.753 24.5894 23.7537 24.5942 23.7536C24.599 23.7535 24.6098 23.7525 24.6275 23.7434C24.646 23.7338 24.6749 23.7137 24.7065 23.6744L24.7143 23.6646L24.7225 23.655L30.8762 16.3825L21.9235 16.4545ZM21.9235 16.4545V15.5455H27.7982H29.9541L28.5616 13.8996L24.5199 9.12212C24.4575 9.04091 24.4056 8.9076 24.4074 8.74582C24.4092 8.57942 24.467 8.44692 24.5312 8.37104C24.5617 8.33498 24.5888 8.31689 24.6059 8.30837C24.6224 8.30013 24.6326 8.29914 24.6375 8.29906C24.6423 8.29899 24.6516 8.29966 24.6669 8.30675C24.6818 8.31364 24.7056 8.3283 24.7333 8.35789L30.8762 15.6175C30.8763 15.6176 30.8763 15.6177 30.8764 15.6178C30.9417 15.6951 31 15.8307 31 16C31 16.1693 30.9417 16.3048 30.8764 16.3822L21.9235 16.4545ZM4.30903 31C4.30861 31 4.30819 31 4.30777 31C3.48982 30.9986 2.66431 30.6152 2.02645 29.8614C1.3841 29.1022 1.00112 28.0423 1 26.9086V5.09137C1.00112 3.95775 1.3841 2.89776 2.02645 2.13864C2.66449 1.3846 3.49029 1.00121 4.30847 1H16.0003C17.804 1 19.9235 2.76566 19.9235 5.09091V13.5455H9.84633C9.19565 13.5455 8.61312 13.8523 8.21265 14.3255C7.81644 14.7938 7.61554 15.398 7.61554 16C7.61554 16.602 7.81644 17.2062 8.21265 17.6745C8.61312 18.1477 9.19565 18.4545 9.84633 18.4545H19.9235L4.30903 31ZM4.30903 31H16.6144M4.30903 31H16.6144M16.6144 31L16.6157 31L16.6144 31Z" fill="#272531" fill-opacity="0.15" stroke="white" stroke-width="2"/>
</svg>
