<svg width="32" height="32" viewBox="0 0 32 32" fill="none" xmlns="http://www.w3.org/2000/svg">
<path d="M11.9774 26.7566L11.9036 26.1629L11.3456 25.9473C11.0547 25.8348 10.7833 25.701 10.5303 25.5466C10.2489 25.3747 9.97413 25.1904 9.70592 24.9937L9.24828 24.658L8.72542 24.8788L4.8034 26.5349L1.30559 20.463L4.70512 17.8758L5.17214 17.5203L5.08955 16.9393C5.06909 16.7954 5.0597 16.6622 5.0597 16.5392V15.4608C5.0597 15.3378 5.06909 15.2046 5.08955 15.0607L5.17214 14.4797L4.70512 14.1242L1.30558 11.537L4.8034 5.46509L8.72542 7.12123L9.24723 7.34158L9.70452 7.00734C9.96867 6.81427 10.2456 6.63269 10.5356 6.46268C10.8182 6.29702 11.0968 6.15737 11.3713 6.04239L11.9059 5.81854L11.9774 5.24343L12.5052 1H19.4948L20.0226 5.24343L20.0964 5.83706L20.6544 6.05274C20.9453 6.1652 21.2167 6.29896 21.4697 6.45345C21.7511 6.6253 22.0259 6.80956 22.2941 7.00631L22.7517 7.34202L23.2746 7.12123L27.1966 5.46509L30.6944 11.537L27.2949 14.1242L26.8279 14.4797L26.9105 15.0607C26.9309 15.2046 26.9403 15.3378 26.9403 15.4608V16.5392C26.9403 16.6106 26.9295 16.6987 26.8988 16.8065L26.7123 17.4627L27.2551 17.8758L30.6546 20.463L27.1582 26.5326L23.2774 24.88L22.7544 24.6572L22.2955 24.9927C22.0313 25.1857 21.7544 25.3673 21.4644 25.5373C21.1818 25.703 20.9033 25.8426 20.6287 25.9576L20.0941 26.1815L20.0226 26.7566L19.4948 31H12.5052L11.9774 26.7566ZM16.0796 22.6C17.8853 22.6 19.4537 21.9468 20.7288 20.6653L10.5075 16H9.50746C9.50746 16.0002 9.50746 16.0005 9.50746 16.0007C9.50763 17.8065 10.1457 19.3787 11.4053 20.6608C12.672 21.9502 14.2514 22.6 16.0796 22.6Z" fill="#272531" fill-opacity="0.15" stroke="white" stroke-width="2"/>
</svg>
