<svg width="50" height="40" viewBox="0 0 50 40" fill="none" xmlns="http://www.w3.org/2000/svg">
<path fill-rule="evenodd" clip-rule="evenodd" d="M0.000126373 0H0V0.000157965L0.000126373 0ZM0 0.640013V39.3596L11.6996 29.9999H7.49997V9.99996H11.6999L0 0.640013ZM12.4999 10.64V29.3596L14.9999 27.3596V12.64L12.4999 10.64ZM19.9999 16.6401V23.3597L22.4999 21.3597V18.6401L19.9999 16.6401ZM22.4999 17.3594L19.9999 15.3594V14.9999H22.4999V17.3594ZM27.4999 22.6401V27.4999C27.5016 28.2065 27.2624 28.7999 26.7824 29.2799C26.3024 29.7599 25.7082 29.9999 24.9999 29.9999H17.4999C16.7933 30.0015 16.1999 29.7624 15.7199 29.2824C15.4839 29.0463 15.3059 28.7827 15.1859 28.4915L0.800478 39.9998H49.1994L36.6996 29.9999H32.4999C31.7932 30.0015 31.1999 29.7624 30.7199 29.2824C30.2399 28.8024 29.9999 28.2082 29.9999 27.4999V24.6401L27.4999 22.6401ZM29.9999 23.3594L27.4999 21.3594V18.6403L29.9999 16.6403V23.3594ZM38.3003 29.9999L49.9998 39.3595V0.640383L38.3003 9.99996H39.9998C40.7065 9.99829 41.2998 10.2375 41.7798 10.7175C42.2598 11.1975 42.4998 11.7916 42.4998 12.4999V27.4999C42.5015 28.2065 42.2623 28.7999 41.7823 29.2799C41.3023 29.7599 40.7082 29.9999 39.9998 29.9999H38.3003ZM15.1851 11.5076L0.800764 0H49.1995L36.6995 9.99996H32.4999C31.7915 9.99996 31.1974 10.24 30.7174 10.72C30.2374 11.2 29.9982 11.7933 29.9999 12.4999V15.3597L27.4999 17.3597V12.4999C27.4999 11.7916 27.2599 11.1975 26.7799 10.7175C26.2999 10.2375 25.7066 9.99829 24.9999 9.99996H17.4999C16.7916 9.99996 16.1974 10.24 15.7174 10.72C15.4821 10.9553 15.3047 11.2178 15.1851 11.5076ZM0 39.9998V39.9997L8.75741e-05 39.9998H0ZM19.9999 24.9999V24.6403L22.4999 22.6403V24.9999H19.9999ZM34.9999 24.9999V14.9999H37.4998V24.9999H34.9999Z" fill="#C8C8C8"/>
</svg>
