<svg width="46" height="40" viewBox="0 0 46 40" fill="none" xmlns="http://www.w3.org/2000/svg">
<path d="M1.13636 0C0.83498 0 0.545942 0.119724 0.332833 0.332833C0.119724 0.545942 0 0.83498 0 1.13636V33.4091C0 33.7104 0.119724 33.9995 0.332833 34.2126C0.545942 34.4257 0.83498 34.5454 1.13636 34.5454H31.5363C31.1391 34.0227 30.7427 33.4995 30.3436 32.9772C29.8472 32.245 29.1263 31.6182 28.915 30.7282C25.9922 31.9345 22.6341 32.0463 19.635 31.045C19.5691 31.0236 19.5045 30.9972 19.4391 30.975C19.095 31.3113 18.7241 31.8977 18.6654 32.2727H14.3441C14.6686 31.1732 13.9795 29.4563 14.6313 28.3372C14.6832 28.3236 14.7459 28.2359 14.7745 28.1454C14.7009 28.0763 14.6263 28.0091 14.5545 27.9386C13.9154 28.1332 13.66 28.6145 13.3045 29.0368C13.4986 29.9568 12.0977 29.7391 12.2391 30.6777C13.215 31.4345 11.3382 30.8577 10.78 30.9182C10.1877 30.9245 8.45499 30.3045 9.05635 31.5727C8.96226 31.9209 9.04908 32.1345 9.22226 32.2727H8.95681C8.91545 31.8745 8.16545 31.8154 7.87636 31.62C7.38954 31.5018 6.80818 31.4427 6.30409 31.2182C6.17454 31.5782 5.00545 31.99 4.74954 32.2727H2.27273V15.6677C2.62136 15.9013 3.40318 15.8086 2.33773 15.3041H2.27273V10.0704C2.47954 9.9659 2.62727 9.93272 2.61818 10.1077C3.13045 9.93499 3.35363 8.68817 4.24 9.19863C4.79272 9.27999 5.70727 10.1368 5.24772 10.2441C5.6059 11.1186 5.85999 10.5554 6.29954 11.5977C5.99863 13.0232 7.1509 14.0795 7.78317 14.9882C8.54045 15.3027 8.83999 16.2818 10.0709 16.32C10.2382 16.4663 10.4527 16.5991 10.6764 16.7263C10.7377 16.2563 10.8245 15.79 10.9341 15.3291C10.9045 15.3223 10.8759 15.3182 10.8441 15.3077C9.65999 16.4 9.41726 14.5091 10.5736 14.435C10.6509 14.43 10.7341 14.4341 10.8236 14.4464C10.9577 14.4304 11.0691 14.4463 11.1632 14.4795C11.5429 13.2346 12.1056 12.0531 12.8327 10.9736C13.2232 10.3909 13.6615 9.84176 14.1432 9.33181C13.9041 8.93181 13.6595 8.70863 13.3709 9.2309C13.3491 8.4559 11.2536 7.64363 12.7954 8.38726C13.6041 9.08408 13.8691 8.26636 13.9968 7.70817C14.69 6.98545 13.2864 6.73863 13.5423 6.26636C13.1168 5.62863 12.4868 4.97545 11.8395 4.58045C10.5841 4.7259 10.1441 4.4609 11.8227 4.46C11.9741 3.67591 12.2254 3.12045 12.3986 2.46045C12.2168 2.40818 12.0268 2.41636 11.8395 2.41591C11.0364 2.30818 10.5595 2.61863 10.5759 3.23182C9.97272 3.18363 10.5145 2.15545 9.58454 2.46954C8.17454 2.44727 9.87908 2.92363 9.74817 2.99227C9.58681 3.35409 8.5709 3.12863 8.69045 3.49545C8.22499 2.63454 8.01317 3.90591 7.6509 3.035C7.43272 2.82591 8.56454 3.24136 8.30681 2.47909C7.73681 2.26091 7.53272 2.64272 7.08863 2.79863C5.76318 3.53227 7.31999 4.22227 7.99317 4.46681C9.00772 4.19636 9.00681 3.85454 9.71226 4.23045C10.5032 4.66909 8.91363 4.36091 8.96226 5.0359C8.87135 4.61636 8.75772 4.36318 8.26681 4.9009C7.61227 5.01909 7.31999 4.11954 6.83136 4.18272C5.71772 4.03136 6.13363 6.5359 7.0509 5.68318C7.6059 6.64363 6.34181 5.93499 5.96681 5.82772C5.12 6.77363 4.20772 5.80318 3.19682 5.76409C2.87318 5.54863 2.55591 5.5459 2.27273 5.65545V2.27273H14.1923C13.3423 2.29591 12.5832 2.40818 12.8923 3.01954C12.8423 4.19863 14.3677 3.26227 14.5873 4.32863C15.2209 5.07363 14.2104 6.65772 15.3063 6.37954C14.9032 6.86999 14.9536 7.65136 15.2682 8.26726C16.4318 7.29065 17.7514 6.51682 19.1718 5.97818C19.1968 5.83818 19.1773 5.67727 19.0936 5.48727C18.9513 4.77409 19.6132 4.54636 19.3813 3.75545C19.6932 3.16 19.4513 2.53 18.9168 2.27273H43.6363V5.48999C43.5658 5.45977 43.4934 5.43426 43.4195 5.41363C42.7791 5.99409 43.2968 6.04909 43.6363 5.91863V6.4259C42.8791 5.99999 42.0472 5.95318 41.2395 6.13045C40.8727 5.49272 39.5741 5.50772 39.1468 4.93363C38.3941 4.03181 39.3763 4.3009 40.0331 4.23136C39.8468 3.66772 38.7286 3.40045 38.2563 3.49363C37.4031 3.96091 38.7045 4.38 38.5731 5.00727C38.5731 5.46318 38.0172 5.46636 37.5322 5.44136C37.7281 4.95863 36.6036 4.365 36.1577 4.75772C35.3136 4.50227 34.9918 4.65227 35.5486 3.77318C35.3541 3.09727 34.55 3.08454 34.1895 2.61545C33.7291 3.59181 32.9613 3.29591 32.1386 3.89045C31.8091 4.37227 31.1227 4.805 31.0886 5.12318C30.5786 5.36272 30.0682 4.14045 29.7104 5.22318C29.3859 6.13954 29.7286 6.58363 28.6336 5.83363C27.5004 4.6259 30.91 3.59136 29.6427 3.07727C28.5909 3.38409 27.9586 4.12545 27.7495 5.17863C27.6363 5.41818 27.6877 5.58499 27.8072 5.71999C31.8 6.9109 35.1041 10.1218 36.4472 14.0609C36.4681 13.8236 36.5077 13.5954 36.5872 13.4286C36.9231 13.1723 36.6568 14.4127 37.3509 13.7073C36.8395 14.805 38.6363 13.8527 38.8795 13.3995C38.5231 12.505 40.1613 12.0836 40.1231 11.915C39.52 11.2823 39.8627 11.9118 39.1972 12.0568C38.9768 11.7632 39.62 10.1532 38.7641 10.3009C37.4859 9.97181 39.8513 9.03045 40.49 9.37681C40.7809 8.30045 41.1991 9.15772 40.4804 9.65272C40.2068 10.6077 40.3377 11.9104 41.1427 10.6341C41.5045 10.2818 41.4145 9.36363 41.8854 9.20363C42.5181 8.90545 43.6472 8.67226 43.6177 7.75045C43.624 7.74863 43.63 7.74908 43.6363 7.74772V32.2727H41.8368C42.2268 31.7327 42.7427 30.8091 42.1963 30.4741C41.3731 30.3318 40.7581 29.3391 39.7631 29.3804C39.3141 28.8632 38.28 28.6013 38.0018 28.5004C37.7236 28.3995 37.2409 28.9827 36.7463 28.725C36.5975 28.7009 36.4456 28.7037 36.2977 28.7332C37.7859 30.665 39.26 32.6072 40.7395 34.5454H44.7727C45.0741 34.5454 45.3631 34.4257 45.5762 34.2126C45.7893 33.9995 45.909 33.7104 45.909 33.4091V1.13636C45.909 0.83498 45.7893 0.545942 45.5762 0.332833C45.3631 0.119724 45.0741 0 44.7727 0H1.13636ZM23.2682 2.41818C22.5363 2.77863 23.8341 4.21363 23.87 2.84363C24.0041 3.04363 24.9036 3.24545 24.6095 2.60045C23.9559 2.21545 24.055 2.65818 23.2677 2.41863L23.2682 2.41818ZM33.7595 2.41909C34.4504 2.81091 32.97 2.80363 33.7595 2.41909ZM8.67772 2.54954C8.08681 2.98863 9.54499 3.42318 8.75499 2.57272L8.67772 2.54954ZM13.5164 2.81C13.6641 2.95182 13.3704 2.90136 13.5164 2.81ZM7.80908 3.37181C7.87863 3.45227 7.77272 3.37772 7.80908 3.37181ZM9.83317 3.55909C10.5454 3.68272 9.77863 3.85 9.83317 3.55909ZM10.8309 3.64091C11.5082 3.59772 11.0795 3.80909 10.8309 3.64091ZM8.84226 3.67091C9.28272 3.71636 8.7859 3.875 8.84226 3.67091ZM10.2523 4.3109C10.6977 4.41363 10.0332 4.44954 10.2523 4.3109ZM10.5664 5.01954C10.2982 5.87499 11.5195 7.03317 10.5718 6.05818C10.3114 5.66818 10.1759 5.29454 10.5664 5.01954ZM8.97635 5.1059C9.36681 5.75818 9.96135 5.93227 9.46363 6.15681C9.13317 5.99681 9.05681 5.49863 8.97635 5.1059ZM15.1032 5.76363C15.1582 5.80045 14.955 5.77272 15.1032 5.76363ZM5.88681 5.96954C5.8359 6.1759 5.81636 5.97272 5.88681 5.96954ZM9.40681 6.30318C9.37499 6.73318 9.19908 6.29545 9.40681 6.30318ZM12.0195 6.3059C11.8495 7.14681 12.5241 7.09318 12.4786 7.17772C11.9214 7.42317 12.0545 8.43408 11.6282 7.66272C11.3591 7.53727 11.7664 6.42727 11.9495 6.32999L12.0195 6.3059ZM9.27999 6.30681C9.33954 6.32045 9.2759 6.50363 9.27999 6.30681ZM42.16 6.38227C42.1781 6.41318 42.0809 6.45954 42.16 6.38227ZM9.31272 6.49227C9.62272 6.81681 8.89726 6.78772 9.31272 6.49227ZM23.7572 6.93908C21.2786 6.9563 18.8726 7.77849 16.9018 9.28181C11.8609 13.1204 10.88 20.3568 14.7186 25.3977C18.3118 30.1163 24.8732 31.2545 29.8322 28.2332L30.7795 29.4772C30.5932 29.9109 30.6104 30.3254 30.8272 30.6109L37.7 39.6359C38.1091 40.1727 39.0968 40.1086 39.9059 39.4922C40.715 38.8763 41.0391 37.9413 40.6304 37.4041L33.7577 28.3791C33.5404 28.0936 33.1454 27.9663 32.6777 28.0309L31.7304 26.7872C35.9618 22.81 36.6104 16.1827 33.0177 11.4641C31.0982 8.94363 28.3291 7.43908 25.41 7.04363C24.8623 6.96948 24.3099 6.93454 23.7572 6.93908ZM10.8532 8.07908C11.1373 8.75363 12.2345 8.35772 11.805 9.27726C12.2832 9.72726 11.7291 11.3136 11.5432 9.96181C10.3532 9.9559 9.78499 8.76863 10.7841 8.14545L10.8532 8.07908ZM11.89 8.1909C12.2536 8.49999 11.3173 8.36317 11.89 8.1909ZM40.4481 9.02181C40.5591 9.16226 40.48 8.99908 40.4481 9.02181ZM24.215 9.4859C25.5341 9.53619 26.8255 9.87867 27.9962 10.4886C29.1669 11.0986 30.1875 11.9609 30.9845 13.0132C31.6985 13.9467 32.2212 15.012 32.5224 16.148C32.8236 17.2841 32.8975 18.4684 32.7398 19.633C32.5821 20.7977 32.1959 21.9197 31.6034 22.9347C31.0109 23.9497 30.2238 24.8377 29.2872 25.5477C28.3537 26.2618 27.2883 26.7845 26.1523 27.0857C25.0162 27.387 23.8318 27.4609 22.6671 27.3032C21.5025 27.1455 20.3804 26.7593 19.3653 26.1668C18.3503 25.5742 17.4623 24.7871 16.7523 23.8504C16.0383 22.9169 15.5157 21.8515 15.2145 20.7155C14.9133 19.5795 14.8395 18.3951 14.9972 17.2305C15.155 16.0658 15.5412 14.9438 16.1337 13.9288C16.7262 12.9138 17.5134 12.0259 18.45 11.3159C20.0997 10.0527 22.1388 9.40546 24.215 9.4859ZM41.755 9.95408C42.6118 10.4364 41.0413 10.5445 41.755 9.95408ZM42.605 10.4459C43.2954 10.8323 41.815 10.8318 42.605 10.4459ZM43.1195 10.6259C43.8377 10.9041 42.415 11.2123 43.1195 10.6259ZM43.0913 10.7532C43.1304 10.7527 43.0672 10.7945 43.0913 10.7532ZM43.1586 10.8264C43.18 10.8609 43.1018 10.8336 43.1586 10.8264ZM23.9136 11.3C22.92 11.2823 21.9391 11.5045 21.0345 11.9036C21.0818 11.9614 21.1495 12.0168 21.2486 12.0668C20.3395 11.7714 20.075 12.92 20.4577 13.4368L21.0727 13.4873L21.5868 13.2609C21.9191 12.9154 22.0018 12.975 22.1091 12.4518L22.3095 12.4777L22.4686 12.4114L22.8309 12.5904C23.2654 12.7604 23.2859 13.1268 23.1404 13.2341C22.9345 13.3609 23.1773 13.3795 23.1973 13.4582C23.3 13.4286 23.36 13.34 23.4245 13.2927L23.5409 13.2509C23.9654 12.9723 23.6691 12.8804 23.3741 12.5045L23.5304 12.5445C23.7591 12.8036 23.8936 13.0968 24.0291 13.4082C24.0445 13.4204 24.0586 13.4364 24.0763 13.4418C24.1791 13.4759 24.3241 13.4645 24.4482 13.4304C24.5709 13.3968 24.5791 13.1627 24.5582 12.9386C24.7332 13.7368 26.4495 13.4995 25.4282 13.9864C24.8395 13.9995 23.9041 13.6768 23.7318 14.0845C23.3509 13.9118 23.1563 13.7986 23.0791 13.71C22.8445 13.6218 22.1695 13.3664 22.1454 13.3664C22.1168 13.3664 21.2577 13.5227 21.2577 13.5227L20.5486 13.7918C20.3182 14.5345 19.9545 14.1373 19.8309 14.7132C19.7341 15.0813 18.9009 15.8768 19.3373 16.5032C19.7268 18.315 21.9854 17.1086 22.5118 17.9786C22.2645 18.5145 23.4877 19.5341 22.8032 20.4118C23.1259 21.6868 23.9932 23.8182 25.3886 22.0036C25.7568 20.9173 26.5495 20.33 26.5213 19.2523C26.1 18.1909 28.5804 17.4041 27.5882 16.5445C27.3504 16.5727 27.3232 16.6241 27.1345 16.6868C26.7382 16.6718 26.6359 16.3523 26.5009 16.1513C26.3978 16.0048 26.3066 15.8502 26.2282 15.6891C26.4804 16.08 26.7409 16.4118 27.1063 16.6159C27.7386 16.4741 28.4636 16.0063 28.7586 15.6632C28.7513 14.3254 30.5495 15.7132 30.5132 16.7186C30.6245 16.9895 30.7659 17.1777 30.9077 17.2877C30.8069 16.6447 30.615 16.0193 30.3377 15.4304C29.8336 14.3241 29.0263 13.3741 28.0454 12.6632C28.0272 12.6914 27.9818 12.6932 27.9909 12.625C27.8582 12.531 27.7226 12.4415 27.5841 12.3564C27.5991 12.4195 27.6172 12.4836 27.6382 12.5486C27.5786 12.46 27.5159 12.37 27.4641 12.2832C26.3932 11.6523 25.165 11.2904 23.9141 11.2995L23.9136 11.3ZM38.7031 11.36C39.0327 12.2991 37.5568 14.4754 37.3422 13.0468C37.4936 12.3404 38.705 12.4468 38.7031 11.36ZM11.0327 11.6077C11.0991 11.6 11.0223 11.6418 11.0327 11.6077ZM11.7332 11.9382C11.8654 12.0482 11.5732 12.0209 11.7332 11.9382ZM25.3822 11.9682C25.7491 12.2773 26.8745 12.6864 25.6832 12.36C25.0632 12.6432 24.8713 12.4618 25.3822 11.9682ZM22.5468 12.5182C22.4668 12.5427 22.5345 12.7086 22.4845 12.7609C22.8254 12.9277 22.6345 12.6032 22.685 12.55C22.6159 12.5173 22.5732 12.5095 22.5468 12.5182ZM27.7436 12.8568C27.8491 13.1309 27.9191 13.3059 27.6482 12.9659C27.6705 12.955 27.6905 12.9397 27.7069 12.921C27.7233 12.9023 27.7358 12.8804 27.7436 12.8568ZM22.5786 12.8909C22.445 12.8764 22.3741 12.9659 22.3736 13.0909C22.7259 13.2823 22.6895 12.9664 22.7327 12.9423C22.6848 12.9158 22.6328 12.8984 22.5786 12.8909ZM28.0213 14.8377C28.2222 14.8459 27.8291 15.1286 27.8963 14.8536C27.9522 14.8414 27.9927 14.8364 28.0213 14.8377ZM41.8672 16.6159C42.6472 17.4336 41.2127 17.3113 41.8672 16.6159ZM41.8218 16.7241C41.8891 16.7168 41.8095 16.7704 41.8218 16.7241ZM41.8781 16.8236C41.8845 16.8704 41.81 16.8123 41.8781 16.8236ZM42.3541 16.9145C43.1195 17.2654 41.72 17.4663 42.3541 16.9145ZM42.4222 17.0713C42.4704 17.0632 42.4131 17.1382 42.4222 17.0713ZM42.3327 17.0954C42.3745 17.1518 42.2959 17.1273 42.3327 17.0954ZM37.1522 17.81C37.1636 18.0936 37.1659 18.3768 37.1595 18.66C37.6809 18.7432 38.3341 18.7195 38.3463 19.2963C39.2809 19.3368 38.25 20.7018 38.2159 19.4382C37.8351 19.3833 37.4468 19.4491 37.1054 19.6263C37.0106 20.6182 36.8076 21.5968 36.5 22.5445C37.2636 22.3023 38.0427 22.3259 38.5027 23.0682C39.7141 23.0636 38.6836 23.8895 39.5422 24.0582C39.9081 23.3109 39.3495 23.405 40.0359 22.7959C40.7018 21.9445 40.2659 20.845 39.6018 20.38C39.4636 19.8536 38.9131 19.5691 39.1722 19.21C39.6768 19.8941 40.3918 19.3818 39.795 19.0118C40.2354 18.6004 41.8091 20.0718 40.9254 18.94C40.4891 18.8591 39.8895 17.9568 39.7536 18.5377C39.7145 19.0195 38.5122 17.8063 38.0686 18.3027C37.9404 17.8554 37.3131 18.1254 37.2777 18.325C37.4704 18.025 37.3491 17.87 37.1522 17.81ZM39.465 18.1986C40.0531 18.5559 38.8136 18.5686 39.465 18.1986ZM22.4491 18.2304C22.5013 18.3486 22.4341 18.25 22.4491 18.2304ZM16.7432 18.2859C16.7297 18.9171 16.7998 19.5472 16.9518 20.16C17.4745 19.3682 17.4541 18.6245 16.7432 18.2859ZM39.4313 18.3077C39.4704 18.3359 39.3831 18.3186 39.4313 18.3077ZM39.8718 18.3623C40.0841 18.5123 39.6591 18.5123 39.8718 18.3623ZM39.8718 18.3668C40.065 18.5059 39.6781 18.5059 39.8718 18.3668ZM39.475 18.4063C39.4822 18.4523 39.4077 18.3982 39.475 18.4063ZM37.1559 18.9C37.1513 19.0091 37.1418 19.1182 37.1345 19.2273C37.2813 19.0618 37.345 18.8909 37.1559 18.9ZM26.7954 19.3713C26.27 19.66 27.3577 19.7918 26.9032 19.4532L26.8836 19.4045L26.7954 19.3713ZM27.41 19.4523C26.8909 19.7768 26.0854 21.3241 27.2022 21.3727C27.4713 21.0527 28.1536 19.6259 27.41 19.4523ZM41.49 20.4377C42.6977 20.93 41.0741 21.2582 41.49 20.4377ZM28.2418 20.5468C28.8968 20.9427 27.5663 21 28.2418 20.5468ZM42.5741 22.4177C42.9586 23.2882 41.6831 23.8095 41.7795 24.6177C42.4341 24.9332 42.7718 23.7459 43.2327 23.3827C43.7777 22.9063 42.8036 22.7654 42.5741 22.4177ZM12.3432 25.095C12.4177 25.5741 12.6423 26.0377 13.0432 26.1791C12.7925 25.8292 12.5589 25.4674 12.3432 25.095Z" fill="#C8C8C8"/>
</svg>
