<svg width="32" height="34" viewBox="0 0 32 34" fill="none" xmlns="http://www.w3.org/2000/svg">
<path d="M28.4912 22.9566H24.9824V19.4248H28.4912M28.4912 30.0202H24.9824V26.4884H28.4912M17.9649 8.82948H14.4561V5.29769H17.9649M17.9649 15.8931H14.4561V12.3613H17.9649M17.9649 22.9566H14.4561V19.4248H17.9649M17.9649 30.0202H14.4561V26.4884H17.9649M7.43856 15.8931H3.92979V12.3613H7.43856M7.43856 22.9566H3.92979V19.4248H7.43856M7.43856 30.0202H3.92979V26.4884H7.43856M21.4737 15.8931V5.29769L16.2105 0L10.9473 5.29769V8.82948H0.421021V33.552H32V15.8931H21.4737Z" fill="white"/>
</svg>
