<svg width="42" height="40" viewBox="0 0 42 40" fill="none" xmlns="http://www.w3.org/2000/svg">
<path d="M41.0384 25.5193C39.7582 29.6566 37.1926 33.2887 33.7066 35.8989C30.6461 38.1794 27.004 39.5702 23.1894 39.9153C19.3747 40.2604 15.5384 39.5462 12.111 37.8526C8.68361 36.1591 5.80082 33.5534 3.78619 30.328C1.77157 27.1026 0.704858 23.3851 0.705785 19.5928C0.692013 15.1665 2.1455 10.8578 4.84328 7.32797C7.47981 3.87685 11.1486 1.33687 15.3277 0.0694949C15.6031 -0.0144675 15.8965 -0.0225076 16.1762 0.0462395C16.4559 0.114987 16.7114 0.25792 16.9151 0.459667C17.1189 0.661414 17.2633 0.914342 17.3327 1.19125C17.4022 1.46816 17.3941 1.75857 17.3092 2.03125C16.3954 5.02376 16.3188 8.20565 17.0876 11.2379C17.8563 14.2701 19.4416 17.039 21.6745 19.2496C23.9074 21.4602 26.7043 23.0297 29.7672 23.7907C32.83 24.5518 36.044 24.4759 39.0667 23.5713C39.3422 23.4873 39.6355 23.4793 39.9152 23.548C40.1949 23.6168 40.4504 23.7597 40.6542 23.9614C40.858 24.1632 41.0023 24.4161 41.0718 24.693C41.1412 24.9699 41.1331 25.2603 41.0483 25.533L41.0384 25.5193Z" fill="white"/>
</svg>
