<svg width="20" height="40" viewBox="0 0 20 40" fill="none" xmlns="http://www.w3.org/2000/svg">
<path d="M12.5353 25.2557V10.9861H7.27251V25.2531C5.4266 26.2077 4.14907 28.1117 4.14907 30.3278C4.17175 31.8345 4.78816 33.2719 5.86516 34.3294C6.94216 35.3869 8.39332 35.9798 9.90522 35.98C11.4171 35.9802 12.8684 35.3876 13.9457 34.3303C15.0229 33.273 15.6396 31.8358 15.6627 30.3291C15.6627 28.113 14.3864 26.209 12.5366 25.257L12.5353 25.2557ZM16.4823 6.55652C16.4823 2.94256 13.5299 0 9.90389 0C6.27785 0 3.32545 2.94388 3.32545 6.55652V23.2455C2.33978 24.1448 1.55288 25.2389 1.01489 26.458C0.476897 27.6772 0.199606 28.9947 0.200687 30.3265C0.200687 35.6583 4.55562 40 9.90521 40C15.2548 40 19.6084 35.6596 19.6084 30.3265C19.6084 27.5911 18.4532 25.042 16.4837 23.2429V6.55914L16.4823 6.55652ZM16.9757 30.3304C16.9733 32.1987 16.2273 33.9896 14.9015 35.3102C13.5757 36.6309 11.7783 37.3734 9.90389 37.3748C8.02977 37.3723 6.23311 36.6293 4.90791 35.3085C3.5827 33.9877 2.83713 32.197 2.8347 30.3291C2.8347 27.9753 4.01355 25.8143 5.96077 24.5096V6.55914C5.96077 4.39155 7.72774 2.62523 9.90389 2.62523C12.08 2.62523 13.851 4.39024 13.851 6.55914V24.5109C14.8122 25.1493 15.6003 26.0145 16.1454 27.0295C16.6905 28.0445 16.9757 29.1792 16.9757 30.3304Z" fill="white"/>
</svg>
