<svg width="88" height="75" viewBox="0 0 88 75" fill="none" xmlns="http://www.w3.org/2000/svg">
<ellipse cx="14.1273" cy="4.35608" rx="14.1273" ry="4.35608" transform="matrix(0.472091 -0.88155 0.970739 0.240135 13 72.9078)" fill="#000032"/>
<ellipse cx="14.1273" cy="4.35608" rx="14.1273" ry="4.35608" transform="matrix(0.472091 -0.88155 0.970739 0.240135 33 72.9078)" fill="#000032"/>
<ellipse cx="14.1273" cy="4.35608" rx="14.1273" ry="4.35608" transform="matrix(0.472091 -0.88155 0.970739 0.240135 53 72.9078)" fill="#000032"/>
<path d="M44.1766 0.976562C59.6025 0.976562 68.3609 10.8243 69.6318 22.7256H70.02C79.9491 22.7256 88.0001 30.4698 88.0001 40.0233C88.0001 49.5769 79.9491 57.3211 70.02 57.3211H18.3332C8.40404 57.3211 0.353027 49.5769 0.353027 40.0233C0.353027 30.4698 8.40404 22.7256 18.3332 22.7256H18.7214C19.9985 10.743 28.7444 0.976562 44.1766 0.976562Z" fill="#000032"/>
</svg>
