<svg width="85" height="85" viewBox="0 0 85 85" fill="none" xmlns="http://www.w3.org/2000/svg">
<path d="M42.5 0C43.3454 0 44.1561 0.335825 44.7539 0.933597C45.3517 1.53137 45.6875 2.34212 45.6875 3.1875V9.5625C45.6875 10.4079 45.3517 11.2186 44.7539 11.8164C44.1561 12.4142 43.3454 12.75 42.5 12.75C41.6546 12.75 40.8439 12.4142 40.2461 11.8164C39.6483 11.2186 39.3125 10.4079 39.3125 9.5625V3.1875C39.3125 2.34212 39.6483 1.53137 40.2461 0.933597C40.8439 0.335825 41.6546 0 42.5 0ZM63.75 42.5C63.75 48.1358 61.5112 53.5409 57.526 57.526C53.5409 61.5112 48.1358 63.75 42.5 63.75C36.8642 63.75 31.4591 61.5112 27.474 57.526C23.4888 53.5409 21.25 48.1358 21.25 42.5C21.25 36.8642 23.4888 31.4591 27.474 27.474C31.4591 23.4888 36.8642 21.25 42.5 21.25C48.1358 21.25 53.5409 23.4888 57.526 27.474C61.5112 31.4591 63.75 36.8642 63.75 42.5ZM81.8125 45.6875C82.6579 45.6875 83.4686 45.3517 84.0664 44.7539C84.6642 44.1561 85 43.3454 85 42.5C85 41.6546 84.6642 40.8439 84.0664 40.2461C83.4686 39.6483 82.6579 39.3125 81.8125 39.3125H75.4375C74.5921 39.3125 73.7814 39.6483 73.1836 40.2461C72.5858 40.8439 72.25 41.6546 72.25 42.5C72.25 43.3454 72.5858 44.1561 73.1836 44.7539C73.7814 45.3517 74.5921 45.6875 75.4375 45.6875H81.8125ZM42.5 72.25C43.3454 72.25 44.1561 72.5858 44.7539 73.1836C45.3517 73.7814 45.6875 74.5921 45.6875 75.4375V81.8125C45.6875 82.6579 45.3517 83.4686 44.7539 84.0664C44.1561 84.6642 43.3454 85 42.5 85C41.6546 85 40.8439 84.6642 40.2461 84.0664C39.6483 83.4686 39.3125 82.6579 39.3125 81.8125V75.4375C39.3125 74.5921 39.6483 73.7814 40.2461 73.1836C40.8439 72.5858 41.6546 72.25 42.5 72.25ZM9.5625 45.6875C10.4079 45.6875 11.2186 45.3517 11.8164 44.7539C12.4142 44.1561 12.75 43.3454 12.75 42.5C12.75 41.6546 12.4142 40.8439 11.8164 40.2461C11.2186 39.6483 10.4079 39.3125 9.5625 39.3125H3.1875C2.34212 39.3125 1.53137 39.6483 0.933597 40.2461C0.335825 40.8439 0 41.6546 0 42.5C0 43.3454 0.335825 44.1561 0.933597 44.7539C1.53137 45.3517 2.34212 45.6875 3.1875 45.6875H9.5625ZM9.435 9.435C10.0327 8.83808 10.8428 8.5028 11.6875 8.5028C12.5322 8.5028 13.3423 8.83808 13.94 9.435L20.315 15.81C20.878 16.4142 21.1846 17.2134 21.17 18.0392C21.1554 18.865 20.8209 19.6529 20.2369 20.2369C19.6529 20.8209 18.865 21.1554 18.0392 21.17C17.2134 21.1846 16.4142 20.878 15.81 20.315L9.435 13.94C8.83808 13.3423 8.5028 12.5322 8.5028 11.6875C8.5028 10.8428 8.83808 10.0327 9.435 9.435ZM13.94 75.565C13.6482 75.8782 13.2963 76.1294 12.9053 76.3036C12.5143 76.4778 12.0922 76.5715 11.6642 76.579C11.2362 76.5866 10.8111 76.5078 10.4142 76.3475C10.0173 76.1872 9.65677 75.9486 9.35409 75.6459C9.05141 75.3432 8.81279 74.9827 8.65248 74.5858C8.49216 74.1889 8.41343 73.7638 8.42099 73.3358C8.42854 72.9078 8.52221 72.4857 8.69643 72.0947C8.87065 71.7037 9.12183 71.3518 9.435 71.06L15.81 64.685C16.1018 64.3718 16.4537 64.1206 16.8447 63.9464C17.2357 63.7722 17.6578 63.6785 18.0858 63.671C18.5138 63.6634 18.9389 63.7422 19.3358 63.9025C19.7327 64.0628 20.0932 64.3014 20.3959 64.6041C20.6986 64.9068 20.9372 65.2673 21.0975 65.6642C21.2578 66.0611 21.3366 66.4862 21.329 66.9142C21.3215 67.3422 21.2278 67.7643 21.0536 68.1553C20.8794 68.5463 20.6282 68.8982 20.315 69.19L13.94 75.565ZM75.565 9.435C74.9673 8.83808 74.1572 8.5028 73.3125 8.5028C72.4678 8.5028 71.6577 8.83808 71.06 9.435L64.685 15.81C64.122 16.4142 63.8154 17.2134 63.83 18.0392C63.8446 18.865 64.1791 19.6529 64.7631 20.2369C65.3471 20.8209 66.135 21.1554 66.9608 21.17C67.7866 21.1846 68.5858 20.878 69.19 20.315L75.565 13.94C76.1619 13.3423 76.4972 12.5322 76.4972 11.6875C76.4972 10.8428 76.1619 10.0327 75.565 9.435ZM71.06 75.565C71.3518 75.8782 71.7037 76.1294 72.0947 76.3036C72.4857 76.4778 72.9078 76.5715 73.3358 76.579C73.7638 76.5866 74.1889 76.5078 74.5858 76.3475C74.9827 76.1872 75.3432 75.9486 75.6459 75.6459C75.9486 75.3432 76.1872 74.9827 76.3475 74.5858C76.5078 74.1889 76.5866 73.7638 76.579 73.3358C76.5715 72.9078 76.4778 72.4857 76.3036 72.0947C76.1294 71.7037 75.8782 71.3518 75.565 71.06L69.19 64.685C68.8982 64.3718 68.5463 64.1206 68.1553 63.9464C67.7643 63.7722 67.3422 63.6785 66.9142 63.671C66.4862 63.6634 66.0611 63.7422 65.6642 63.9025C65.2673 64.0628 64.9068 64.3014 64.6041 64.6041C64.3014 64.9068 64.0628 65.2673 63.9025 65.6642C63.7422 66.0611 63.6634 66.4862 63.671 66.9142C63.6785 67.3422 63.7722 67.7643 63.9464 68.1553C64.1206 68.5463 64.3718 68.8982 64.685 69.19L71.06 75.565Z" fill="white"/>
</svg>
